<svg width="48" height="48" viewBox="0 0 48 48" fill="none" xmlns="http://www.w3.org/2000/svg">
<g id="linkedin 3 1">
<g id="XMLID_1_">
<g id="Group">
<path id="Vector" d="M28.4 24C26.9 24 25.4 25.2 25.4 27.5V36H20.3V20H25V22.2C25.5 21.1 27.2 19.5 29.8 19.5C32.7 19.5 35.7001 21.1 35.7001 26.1V36H30.9V27.3C30.9 24.8 29.9 24 28.4 24Z" fill="white"/>
<path id="Vector_2" d="M14.9 17.7C16.4464 17.7 17.7 16.4464 17.7 14.9C17.7 13.3536 16.4464 12.1 14.9 12.1C13.3536 12.1 12.1 13.3536 12.1 14.9C12.1 16.4464 13.3536 17.7 14.9 17.7Z" fill="white"/>
<path id="Vector_3" d="M17.4 20H12.3V36H17.4V20Z" fill="white"/>
<path id="Vector_4" d="M12 14.9C12 16.5 13.2 17.8 14.9 17.8C16.6 17.8 17.8 16.6 17.8 14.9C17.8 13.2 16.5 12 14.9 12C13.4 12 12 13.2 12 14.9ZM20.2 20V36H25.3V27.5C25.3 25.3 26.8 24 28.3 24C29.8 24 30.8 24.8 30.8 27.3V36H35.6V26.1C35.6 21.1 32.6 19.5 29.7 19.5C27.1 19.5 25.3 21.1 24.9 22.2V20H20.2ZM17.4 36V20H12.3V36H17.4ZM48 0V48H0V0H48Z" fill="#323238"/>
</g>
</g>
</g>
</svg>
